<svg width="25" height="25" viewBox="0 0 25 25" fill="none" xmlns="http://www.w3.org/2000/svg">
<path d="M20.5939 12.1302C19.833 11.2416 19.4872 10.4716 19.4872 9.16338V8.71856C19.4872 7.01377 19.0948 5.91537 18.2418 4.81696C16.927 3.11113 14.7135 2.08301 12.5467 2.08301H12.4546C10.3333 2.08301 8.18926 3.06392 6.85169 4.70051C5.95204 5.82095 5.51412 6.96657 5.51412 8.71856V9.16338C5.51412 10.4716 5.19111 11.2416 4.40741 12.1302C3.83076 12.7849 3.64648 13.6262 3.64648 14.5369C3.64648 15.4485 3.94568 16.3119 4.54614 17.0138C5.32984 17.8552 6.43654 18.3923 7.56706 18.4857C9.20383 18.6724 10.8406 18.7427 12.5012 18.7427C14.1607 18.7427 15.7975 18.6252 17.4353 18.4857C18.5648 18.3923 19.6715 17.8552 20.4552 17.0138C21.0546 16.3119 21.3548 15.4485 21.3548 14.5369C21.3548 13.6262 21.1705 12.7849 20.5939 12.1302Z" fill="white"/>
<path opacity="0.4" d="M14.5943 20.0287C14.0735 19.9175 10.9004 19.9175 10.3797 20.0287C9.93453 20.1315 9.45312 20.3707 9.45312 20.8953C9.47901 21.3957 9.77199 21.8374 10.1778 22.1175L10.1768 22.1185C10.7017 22.5277 11.3177 22.7878 11.9626 22.8812C12.3063 22.9284 12.6563 22.9263 13.0124 22.8812C13.6563 22.7878 14.2723 22.5277 14.7972 22.1185L14.7962 22.1175C15.202 21.8374 15.495 21.3957 15.5209 20.8953C15.5209 20.3707 15.0395 20.1315 14.5943 20.0287Z" fill="white"/>
</svg>
